<svg xmlns="http://www.w3.org/2000/svg" viewBox="126 76.5 300 300">
  <path d="M297.431 324.397v-34.255c0-3.245-2.344-5.95-5.358-5.95h-32.146c-3.014 0-5.358 2.705-5.358 5.95v34.255c0 3.245 2.344 5.95 5.358 5.95h32.146c3.014 0 5.358-2.705 5.358-5.95Zm-.335-67.428 3.014-82.753c0-1.081-.502-2.524-1.674-3.425-1.005-.902-2.512-1.983-4.019-1.983h-36.834c-1.507 0-3.014 1.081-4.019 1.983-1.172.901-1.674 2.704-1.674 3.786l2.846 82.392c0 2.344 2.512 4.146 5.693 4.146h30.975c3.013 0 5.525-1.803 5.692-4.146Zm-2.344-168.39L423.34 342.425c3.683 7.032 3.516 15.686-.335 22.717-3.85 7.031-10.883 11.358-18.417 11.358H147.413c-7.534 0-14.566-4.327-18.417-11.358-3.85-7.031-4.018-15.685-.335-22.716L257.248 88.578C260.93 81.188 268.13 76.5 276 76.5c7.87 0 15.069 4.688 18.752 12.08Z"/>
</svg>
