<?xml version="1.0" encoding="utf-8"?>
<svg width="800px" height="800px" viewBox="0 0 24 24" xmlns="http://www.w3.org/2000/svg">
<path fill-rule="evenodd" clip-rule="evenodd" d="M1 12C1 5.92487 5.92487 1 12 1C18.0751 1 23 5.92487 23 12C23 18.0751 18.0751 23 12 23C5.92487 23 1 18.0751 1 12ZM10.0586 6.05547C10.0268 5.48227 10.483 5 11.0571 5H12.9429C13.517 5 13.9732 5.48227 13.9414 6.05547L13.5525 13.0555C13.523 13.5854 13.0847 14 12.554 14H11.446C10.9153 14 10.477 13.5854 10.4475 13.0555L10.0586 6.05547ZM14 17C14 18.1046 13.1046 19 12 19C10.8954 19 10 18.1046 10 17C10 15.8954 10.8954 15 12 15C13.1046 15 14 15.8954 14 17Z"/>
</svg>
