<?xml version="1.0" encoding="utf-8"?>
<svg fill="#000000" width="800px" height="800px" viewBox="0 0 32 32" version="1.1" xmlns="http://www.w3.org/2000/svg">
<title>chat2</title>
<path d="M16 5.274c-6.939 0-12.565 4.187-12.565 9.352 0 3.104 2.032 5.854 5.16 7.555-0.009 0.027-2.492 4.545-2.492 4.545s7.583-2.892 7.604-2.904c0.744 0.103 1.511 0.155 2.294 0.155 6.939 0 12.565-4.187 12.565-9.351-0.001-5.165-5.627-9.352-12.566-9.352zM9.968 15.625c-0.552 0-1-0.448-1-1 0-0.553 0.448-1 1-1s1 0.447 1 1c0 0.552-0.447 1-1 1zM13.947 15.667c-0.552 0-1-0.448-1-1 0-0.553 0.448-1 1-1 0.553 0 1 0.447 1 1 0 0.552-0.447 1-1 1zM17.988 15.667c-0.552 0-1-0.448-1-1 0-0.553 0.448-1 1-1 0.553 0 1 0.447 1 1 0 0.552-0.447 1-1 1zM21.988 15.667c-0.552 0-1-0.448-1-1 0-0.553 0.448-1 1-1 0.553 0 1 0.447 1 1 0 0.552-0.447 1-1 1z"></path>
</svg>
