<svg xmlns="http://www.w3.org/2000/svg" viewBox="0 0 32 32">
  <path d="M15.97 4.19C7.16 4.19.03 9.51.03 16.07c0 3.93 2.59 7.42 6.55 9.58l-3.16 5.77 9.65-3.69c.94.14 1.92.2 2.9.2 8.81 0 15.96-5.32 15.96-11.86 0-6.56-7.15-11.88-15.96-11.88zM8.33 17.34c-.7 0-1.28-.57-1.28-1.27 0-.71.58-1.27 1.28-1.27s1.26.56 1.26 1.27c0 .7-.58 1.27-1.26 1.27zm5.05.05a1.27 1.27 0 1 1 0-2.54 1.27 1.27 0 0 1 0 2.54zm5.12 0c-.7 0-1.28-.57-1.28-1.27 0-.71.58-1.27 1.28-1.27.7 0 1.26.56 1.26 1.27 0 .7-.56 1.27-1.26 1.27zm5.07 0c-.7 0-1.26-.57-1.26-1.27 0-.71.56-1.27 1.26-1.27s1.28.56 1.28 1.27c0 .7-.58 1.27-1.28 1.27z"/>
</svg>
