<svg xmlns="http://www.w3.org/2000/svg" viewBox="92 59.5 300 300">
  <path d="M292 303.25V272c0-3.516-2.734-6.25-6.25-6.25H267v-100c0-3.516-2.734-6.25-6.25-6.25h-62.5c-3.516 0-6.25 2.734-6.25 6.25V197c0 3.516 2.734 6.25 6.25 6.25H217v62.5h-18.75c-3.516 0-6.25 2.734-6.25 6.25v31.25c0 3.516 2.734 6.25 6.25 6.25h87.5c3.516 0 6.25-2.734 6.25-6.25Zm-25-175V97c0-3.516-2.734-6.25-6.25-6.25h-37.5c-3.516 0-6.25 2.734-6.25 6.25v31.25c0 3.516 2.734 6.25 6.25 6.25h37.5c3.516 0 6.25-2.734 6.25-6.25Zm125 81.25c0 82.813-67.188 150-150 150-82.813 0-150-67.188-150-150 0-82.813 67.188-150 150-150 82.813 0 150 67.188 150 150Z"/>
</svg>
