<svg xmlns="http://www.w3.org/2000/svg" viewBox="0 128 300 300">
  <path d="M150 128c82.813 0 150 67.188 150 150 0 82.813-67.188 150-150 150C67.187 428 0 360.812 0 278c0-82.813 67.188-150 150-150Zm25 243.555v-37.11c0-3.515-2.734-6.445-6.055-6.445h-37.5c-3.515 0-6.445 2.93-6.445 6.445v37.11c0 3.515 2.93 6.445 6.445 6.445h37.5c3.32 0 6.055-2.93 6.055-6.445Zm-.39-67.188 3.515-121.289c0-1.367-.586-2.734-1.953-3.516-1.172-.976-2.93-1.562-4.688-1.562h-42.968c-1.758 0-3.516.586-4.688 1.563-1.367.78-1.953 2.148-1.953 3.515l3.32 121.29c0 2.734 2.93 4.882 6.64 4.882h36.134c3.515 0 6.445-2.148 6.64-4.883Z"/>
</svg>
