<svg xmlns="http://www.w3.org/2000/svg" viewBox="300.5 134 300 300">
  <path d="M551.281 252.36c0-3.32-1.172-6.641-3.515-8.985l-17.774-17.578c-2.344-2.344-5.469-3.711-8.789-3.711-3.32 0-6.445 1.367-8.789 3.71l-79.687 79.493-44.141-44.14c-2.344-2.344-5.469-3.712-8.79-3.712-3.32 0-6.444 1.368-8.788 3.711l-17.774 17.579c-2.343 2.343-3.515 5.664-3.515 8.984 0 3.32 1.172 6.445 3.515 8.789l70.704 70.703c2.343 2.344 5.664 3.711 8.789 3.711 3.32 0 6.64-1.367 8.984-3.71l106.055-106.056c2.343-2.343 3.515-5.468 3.515-8.789ZM600.5 284c0 82.813-67.188 150-150 150-82.813 0-150-67.188-150-150 0-82.813 67.188-150 150-150 82.813 0 150 67.188 150 150Z"/>
</svg>
